<svg xmlns="http://www.w3.org/2000/svg" viewBox="430 480 320 460" width="64" height="92">
<defs>
<linearGradient id="gradient_0" gradientUnits="userSpaceOnUse" x1="549.83" y1="625.77" x2="544.44" y2="539.77">
<stop offset="0" stop-color="#22609E"/>
<stop offset="1" stop-color="#00D8BC"/>
</linearGradient>
<linearGradient id="gradient_1" gradientUnits="userSpaceOnUse" x1="688.26" y1="692.96" x2="717.75" y2="584.52">
<stop offset="0" stop-color="#264199"/>
<stop offset="1" stop-color="#06A4B0"/>
</linearGradient>
<linearGradient id="gradient_2" gradientUnits="userSpaceOnUse" x1="736.26" y1="609.63" x2="745.75" y2="583.37">
<stop offset="0" stop-color="#0AA2B1"/>
<stop offset="1" stop-color="#03BCB7"/>
</linearGradient>
</defs>
<path fill="#212982" transform="scale(1.51933 1.51933)" d="M494.645 443.944C493.222 434.125 502.279 431.588 506.659 436.596C512.425 443.187 506.666 448.966 498.937 448.46C493.187 454.941 487.278 461.28 481.216 467.47L427.096 467.426L427.17 529.995C420.818 536.43 414.373 543.122 407.819 549.324C409.212 553.302 408.442 588.396 408.432 594.631C426.451 613.151 383.86 611.37 402.226 594.59C402.229 580.314 401.788 561.19 402.172 546.568C402.661 545.806 403.074 545.164 403.409 544.641C409.313 539.061 414.98 533.141 420.654 527.32L420.621 460.81L458.793 460.889C464.428 460.893 473.001 460.612 478.432 460.962C483.884 455.335 489.289 449.662 494.645 443.944Z"/>
<path fill="#A011AA" transform="scale(1.51933 1.51933)" d="M402.226 594.59C402.229 580.314 401.788 561.19 402.172 546.568C402.661 545.806 403.074 545.164 403.409 544.641C403.011 550.055 401.665 564.748 403.909 568.995L405.13 569.605C409.591 567.188 404.682 552.694 407.819 549.324C409.212 553.302 408.442 588.396 408.432 594.631C426.451 613.151 383.86 611.37 402.226 594.59Z"/>
<path fill="#212982" transform="scale(1.51933 1.51933)" d="M355.9 368.907C354.138 367.193 351.382 364.184 351.664 361.755C353.154 348.963 375.849 355.664 362.489 369.134C362.5 380.941 362.866 395.155 362.277 406.767C371.095 416.301 381.079 424.735 389.289 434.701C389.831 435.359 389.589 438.033 389.521 438.907C389.868 441.939 389.699 450.336 389.714 453.724C389.802 463.617 389.798 473.511 389.703 483.404L362.39 483.258C356.759 489.111 350.87 495.455 344.93 500.93C340.447 500.9 320.486 500.662 319.397 501.318C296.11 515.331 303.841 478.845 318.159 494.175C318.995 495.07 341.004 494.732 341.737 494.726C346 491.353 355.101 481.42 359.259 477.109L383.478 476.891C383.304 466.215 384.204 446.37 383.188 436.458C379.435 433.813 359.244 413.539 356.048 409.797C356.071 396.167 356.022 382.536 355.9 368.907Z"/>
<path fill="url(#gradient_0)" transform="scale(1.51933 1.51933)" d="M355.9 368.907C354.138 367.193 351.382 364.184 351.664 361.755C353.154 348.963 375.849 355.664 362.489 369.134C362.5 380.941 362.866 395.155 362.277 406.767C371.095 416.301 381.079 424.735 389.289 434.701C389.831 435.359 389.589 438.033 389.521 438.907C388.818 437.45 388.783 436.833 388.484 435.222C384.855 431.718 366.182 411.621 363.541 411.177C361.392 411.759 361.924 411.279 360.813 412.786C365.013 419.834 381.893 431.171 383.188 436.458C379.435 433.813 359.244 413.539 356.048 409.797C356.071 396.167 356.022 382.536 355.9 368.907Z"/>
<path fill="url(#gradient_1)" transform="scale(1.51933 1.51933)" d="M437.302 375.299C435.396 373.736 433.159 371.547 433.166 368.901C433.192 359.139 449.367 358.431 447.882 369.657C447.509 372.482 445.955 374.36 443.446 375.709C444.386 381.586 443.883 399.523 443.777 406.337C437.829 412.184 430.982 418.656 425.456 424.814L425.491 442.535C438.207 442.551 450.922 442.666 463.636 442.879C468.105 438.358 502.988 402.308 505.552 401.208L507.777 400.427L509.194 401.174C510.068 404.757 508.79 403.948 508.448 406.353C506.957 409.594 471.868 443.821 466.691 449.138L419.095 449.044L419.145 422.039C424.551 415.811 431.625 409.107 437.558 403.23C437.592 397.012 437.971 380.491 437.302 375.299Z"/>
<path fill="#0AA2AE" transform="scale(1.51933 1.51933)" d="M437.302 375.299C435.396 373.736 433.159 371.547 433.166 368.901C433.192 359.139 449.367 358.431 447.882 369.657C447.509 372.482 445.955 374.36 443.446 375.709L443.302 375.16C442.777 376.729 439.903 376.802 438.494 376.629L438.176 374.718L437.302 375.299Z"/>
<path fill="#212982" transform="scale(1.51933 1.51933)" d="M401.619 422.485C403.166 418.135 401.641 414.857 402.851 412.549C404.554 412.024 403.833 412.043 405.692 412.785C407.052 415.304 405.944 417.107 406.67 420.798L407.704 420.601L407.928 522.506C400.827 529.575 392.471 535.359 385.339 542.134C386.177 546.061 385.725 574.268 385.688 580.203C403.399 597.146 362.464 598.909 379.447 580.04C379.357 570.887 378.643 545.85 379.653 538.191C387.033 532.026 394.369 525.809 401.659 519.54L401.671 502.112C397.292 502.207 390.798 503.196 388.855 498.404C391.127 494.56 397.669 495.253 401.534 495.29C401.639 472.61 400.609 444.613 401.619 422.485Z"/>
<path fill="#A011AA" transform="scale(1.51933 1.51933)" d="M379.653 538.191C380.254 543.378 380.481 547.822 380.419 553.051C380.371 557.077 379.105 562.629 381.757 565.759C383.604 566.342 382.829 566.486 384.213 565.836C384.927 562.18 383.909 548.546 385.339 542.134C386.177 546.061 385.725 574.268 385.688 580.203C403.399 597.146 362.464 598.909 379.447 580.04C379.357 570.887 378.643 545.85 379.653 538.191Z"/>
<path fill="#6E1A9C" transform="scale(1.51933 1.51933)" d="M356.132 537.944C359.155 534.737 376.592 516.987 376.908 515.883C381.789 498.85 397.008 518.998 384.576 520.928C378.384 521.889 378.28 524.241 375.411 527.118C370.548 531.996 366.753 536.075 362.448 540.506L362.474 555.634L362.556 579.823C368.678 585.407 369.173 593.406 358.833 593.373C350.471 593.347 349.828 585.2 356.128 579.996C356.111 575.132 356.005 569.998 356.085 565.16C355.873 556.453 356.094 546.725 356.132 537.944Z"/>
<path fill="#A011AA" transform="scale(1.51933 1.51933)" d="M362.474 555.634L362.556 579.823C368.678 585.407 369.173 593.406 358.833 593.373C350.471 593.347 349.828 585.2 356.128 579.996C356.111 575.132 356.005 569.998 356.085 565.16C357.843 571.8 356.428 576.39 357.434 582.611C357.561 583.392 362.912 586.27 364.811 586.758L365.533 586.322C365.101 583.913 363.14 582.217 361.448 580.388C361.215 572.967 362.037 563.213 362.474 555.634Z"/>
<path fill="#274EA0" transform="scale(1.51933 1.51933)" d="M310.851 414.99C319.224 415.588 318.927 424.498 324.732 429.717C326.964 431.724 329.237 434.223 331.461 436.335L365.5 436.252C365.779 439.889 365.477 443.541 369.098 445.259C377.553 449.272 381.076 456.971 369.105 458.914C368.199 458.526 365.618 457.301 365.321 456.582C362.803 450.486 362.724 448.575 359.193 442.833L329.285 442.88C326.231 440.413 315.97 428.947 314.875 429.325C306.252 432.306 299.233 419.794 310.851 414.99Z"/>
<path fill="#6E1A9C" transform="scale(1.51933 1.51933)" d="M457.912 493.596C473.969 507.848 494.475 529.129 510.117 544.397C519.069 542.304 524.433 549.458 517.803 557.103C509.84 560.642 507.869 556.069 506.272 549.477L453.961 498.694C455.161 496.964 456.593 495.249 457.912 493.596Z"/>
<path fill="#0AA2AE" transform="scale(1.51933 1.51933)" d="M402.974 353.874C385.272 334.925 426.664 336.606 409.551 353.777L409.449 388.844C421.816 401.849 419.576 400.875 407.824 413.48L407.704 420.601L406.67 420.798C405.944 417.107 407.052 415.304 405.692 412.785C403.833 412.043 404.554 412.024 402.851 412.549C401.641 414.857 403.166 418.135 401.619 422.485C401.382 418.93 401.399 414.713 401.227 411.02C404.343 406.881 408.064 403.562 411.81 399.99L403.227 391.921C402.725 379.881 403.068 366.131 402.974 353.874Z"/>
<path fill="#6E1A9C" transform="scale(1.51933 1.51933)" d="M437.732 502.837C439.934 502.738 441.504 502.465 443.55 503.231C444.807 504.909 444.458 506.965 444.439 509.205C448.019 513.748 455.954 521.167 460.268 525.407C469.202 534.232 478.186 543.007 487.218 551.732C495.84 552.218 499.13 557.361 493.846 564.695C485.928 568.98 482.162 564.222 482.548 556.348C468.672 541.899 452.17 526.431 437.718 512.186L437.732 502.837Z"/>
<path fill="#1374A6" transform="scale(1.51933 1.51933)" d="M482.649 393.076L482.594 392.38C482.382 389.543 482.399 387.467 484.358 385.102C485.38 383.848 486.865 383.06 488.476 382.918C494.822 382.35 499.714 390.142 494.603 394.922C491.859 397.488 487.457 397.745 484.626 400.232C480.997 403.48 470.003 416.174 466.767 418.11C462.132 423.416 455.236 430.796 448.936 434.074C445.518 435.853 440.742 434.96 439.672 430.665C439.188 428.685 439.598 426.592 440.795 424.941C441.617 423.791 442.879 423.033 444.28 422.845C446.789 422.49 448.288 423.555 450.086 425.027L450.575 425.432C454.869 421.011 460.33 415.081 464.966 411.281C466.675 408.789 479.755 395.999 482.649 393.076Z"/>
<path fill="url(#gradient_2)" transform="scale(1.51933 1.51933)" d="M482.649 393.076L482.594 392.38C482.382 389.543 482.399 387.467 484.358 385.102C485.38 383.848 486.865 383.06 488.476 382.918C494.822 382.35 499.714 390.142 494.603 394.922C491.859 397.488 487.457 397.745 484.626 400.232C480.997 403.48 470.003 416.174 466.767 418.11C466.7 414.64 479.212 405.549 481.919 400.904L481.291 400.006C475.179 397.062 470.041 411.012 464.966 411.281C466.675 408.789 479.755 395.999 482.649 393.076Z"/>
<path fill="#0AA2AE" transform="scale(1.51933 1.51933)" d="M379.805 354.097C380.247 354.065 380.689 354.041 381.131 354.027C390.016 353.786 392.768 362.358 385.676 368.384C385.741 378.878 384.802 390.916 386.267 401.144C386.927 405.754 398.716 403.422 391.452 414.309C374.45 422.942 379.107 377.536 379.15 368.206C373.059 362.959 373.937 358.618 379.805 354.097Z"/>
<path fill="#6E1A9C" transform="scale(1.51933 1.51933)" d="M358.815 507.355C361.041 508.012 362.519 509.637 364.23 511.207C359.109 516.847 353.813 522.326 348.351 527.636C339.234 527.522 327.096 526.924 317.969 528.196C317.393 528.276 314.076 530.501 312.928 531.115C310.305 531.401 309.543 530.947 307.165 529.998C299.65 520.989 310.12 511.282 318.298 521.162L345.451 521.133C349.92 516.671 354.409 511.906 358.815 507.355Z"/>
<path fill="#212982" transform="scale(1.51933 1.51933)" d="M309.633 450.935C314.275 450.914 315.546 452.135 318.33 455.531C328.445 455.77 339.07 455.66 349.225 455.706C352.327 458.479 363.009 466.832 360.736 471.096C357.808 472.291 357.226 471.654 354.88 469.963C352.12 466.933 349.715 464.632 346.756 461.845L318.067 461.854C316.081 464.73 313.189 466.367 309.63 465.437C307.746 464.942 306.151 463.688 305.226 461.973C304.257 460.165 304.054 458.043 304.663 456.084C305.557 453.261 307.268 452.262 309.633 450.935Z"/>
<path fill="#212982" transform="scale(1.51933 1.51933)" d="M458.797 482.923L475.994 483.059C483.226 489.019 490.512 494.915 497.85 500.744C506.735 499.645 511.432 504.645 506.655 512.924C499.365 517.817 494.868 514.226 494.156 506.198C488.747 501.213 480.092 494.609 474.183 489.815C470.057 489.576 461.07 490.898 458.49 487.853C458.08 485.786 458.395 484.955 458.797 482.923Z"/>
<path fill="#6E1A9C" transform="scale(1.51933 1.51933)" d="M432.438 529.28C436.044 532.041 440.114 536.259 443.234 539.538C443.528 550.359 443.555 561.186 443.314 572.008C448.458 577.532 449.946 581.902 442.687 586.39C432.982 587.606 429.807 579.084 437.065 572.508L436.979 542.279L432.37 537.549C432.261 534.822 432.374 532.018 432.438 529.28Z"/>
<path fill="#212982" transform="scale(1.51933 1.51933)" d="M527.481 615.831C532.863 614.203 538.552 617.211 540.235 622.575C541.919 627.938 538.968 633.656 533.62 635.394C530.112 636.533 526.262 635.702 523.538 633.216C520.813 630.73 519.634 626.973 520.45 623.376C521.266 619.78 523.951 616.899 527.481 615.831Z"/>
<path fill="#0AA2AE" transform="scale(1.51933 1.51933)" d="M505.552 401.208C507.231 397.747 505.45 392.787 510.564 390.978C519.974 387.648 525.116 402.451 514.816 404.908C511.4 405.7 512.095 404.129 508.448 406.353C508.79 403.948 510.068 404.757 509.194 401.174L507.777 400.427L505.552 401.208Z"/>
<path fill="#212982" transform="scale(1.51933 1.51933)" d="M443.877 481.222C446.335 480.611 448.931 481.371 450.671 483.211C452.41 485.051 453.023 487.686 452.274 490.105C451.525 492.524 449.531 494.351 447.056 494.887C443.309 495.698 439.604 493.353 438.736 489.62C437.867 485.886 440.156 482.147 443.877 481.222Z"/>
<path fill="#6E1A9C" transform="scale(1.51933 1.51933)" d="M366.122 493.876C368.322 492.994 370.826 493.363 372.678 494.842C374.529 496.32 375.443 498.681 375.068 501.02C374.694 503.36 373.09 505.317 370.869 506.145C367.493 507.403 363.734 505.713 362.434 502.354C361.135 498.995 362.779 495.216 366.122 493.876Z"/>
</svg>